<?xml version="1.0" encoding="UTF-8" standalone="no"?>
<!-- Created with Inkscape (http://www.inkscape.org/) -->

<svg
   version="1.1"
   id="svg1"
   width="500"
   height="500"
   viewBox="0 0 500 500"
   xmlns="http://www.w3.org/2000/svg"
   xmlns:svg="http://www.w3.org/2000/svg">
  <defs
     id="defs1" />
  <g
     id="g1">
    <path
       style="fill:#12123d;fill-opacity:1"
       d="m 260.5,380.34882 c -7.15,-3.02636 -17.725,-7.44171 -23.5,-9.8119 -5.775,-2.37019 -24.48859,-10.21062 -41.58577,-17.42318 C 178.31706,345.90118 163.71042,340 162.95502,340 c -0.7554,0 -17.8168,6.57084 -37.91423,14.60186 C 71.605753,375.95475 70.624771,376.28789 66.391427,374.51908 61.251338,372.37142 59.622714,367.856 61.461424,360.85046 62.818072,355.6816 87.914015,266.10256 89.995256,259 c 0.564077,-1.925 4.189296,-14.975 8.056042,-29 10.522282,-38.16516 6.669622,-32.97323 31.969562,-43.08297 63.53249,-25.3873 56.69683,-24.00553 76.86342,-15.53728 C 223.31209,178.27802 222,178.42123 222,169.7299 c 0,-48.19805 50.2717,-78.84977 93.47478,-56.99355 24.3827,12.33509 39.09411,42.8612 33.41589,69.33784 -1.39721,6.51497 -2.99099,5.65113 21.92851,11.88545 28.08944,7.02737 23.97252,2.41445 32.71181,36.65297 11.60934,45.48267 22.2865,87.21783 28.46377,111.25988 6.87211,26.74638 6.89133,26.921 3.41635,31.05078 -3.56781,4.2401 -5.46934,4.10171 -34.96452,-2.54474 C 386.72597,367.28672 373.925,364.41669 372,364.00067 c -14.00488,-3.02661 -25.31466,-5.481 -30,-6.51046 -5.5,-1.20846 -5.5,-1.20846 -34.64611,13.65066 -33.41936,17.03769 -29.96115,16.35807 -46.85389,9.20795 z m 17.27749,-13.90552 c 4.36147,-3.05489 3.30224,-90.72581 -1.15262,-95.40114 -5.70991,-5.9925 -30.36746,-41.82486 -41.66003,-60.54038 -6.6361,-10.99822 -6.6361,-10.99822 -21.05047,-17.34512 -7.9279,-3.49079 -15.05047,-6.4166 -15.82792,-6.50178 -1.63431,-0.17907 -2.6091,4.60192 -12.60958,61.84512 -9.54351,54.62743 -11.45652,65.44711 -12.46501,70.5 -1.2922,6.47433 -9.8801,2.14144 74.48814,37.58186 30.90282,12.9813 27.43556,11.85201 30.27749,9.86144 z m 30.07769,-15.09027 c 6.95465,-3.65584 15.11888,-7.97685 18.14274,-9.60226 5.82207,-3.12952 10.40175,-3.33313 20.50208,-0.91151 2.2,0.52747 6.475,1.4998 9.5,2.16074 3.025,0.66094 7.075,1.55213 9,1.98042 1.925,0.42829 6.875,1.51806 11,2.42172 4.125,0.90365 15.15,3.37422 24.5,5.49016 9.35,2.11594 17.13396,3.50391 17.29769,3.08437 0.16372,-0.41953 -4.19491,-18.24841 -9.68586,-39.61973 C 402.62089,294.98562 394.71212,264 390.53679,247.5 c -4.17533,-16.5 -7.81751,-30.73391 -8.09374,-31.63092 -0.27623,-0.897 -1.72642,-1.90553 -3.22264,-2.24116 -1.49623,-0.33564 -10.34419,-2.61246 -19.66213,-5.05961 -9.31795,-2.44715 -17.28826,-4.23519 -17.7118,-3.97343 -0.42354,0.26176 -6.80328,9.3475 -14.17722,20.19052 -7.37393,10.84303 -18.19112,26.37284 -24.0382,34.5107 C 293,274.09219 293,274.09219 293,316.0461 293,346.01045 293.31584,358 294.10518,358 c 0.60784,0 6.79534,-2.99114 13.75,-6.64697 z M 119.97796,338.06127 c 19.51288,-7.76446 35.76991,-14.44211 36.12673,-14.83923 0.35681,-0.39712 2.97818,-13.99704 5.82526,-30.22204 2.84708,-16.225 5.56851,-31.525 6.04763,-34 0.47912,-2.475 1.38921,-7.425 2.02242,-11 0.63321,-3.575 1.53321,-8.525 2,-11 0.46679,-2.475 1.36679,-7.425 2,-11 0.63321,-3.575 1.52761,-8.525 1.98754,-11 0.45994,-2.475 1.28665,-6.975 1.83714,-10 0.55049,-3.025 1.554,-8.32365 2.23001,-11.77477 0.67601,-3.45112 0.96112,-6.54275 0.63358,-6.87029 -0.32754,-0.32754 -13.55389,4.57845 -29.3919,10.9022 C 122.5,208.75486 122.5,208.75486 102.48863,278.62743 c -11.006252,38.42991 -20.312746,70.61608 -20.681098,71.5248 -0.75986,1.87459 0.07218,3.12658 1.640234,2.46811 0.578729,-0.24303 17.017314,-6.7946 36.530194,-14.55907 z M 295.81115,238.75 c 38.57216,-52.22911 44.01941,-68.59333 30.50777,-91.6492 -30.29146,-51.688466 -107.62225,-8.25138 -80.82395,45.3992 6.46714,12.94732 37.84182,59.5 40.10066,59.5 0.23658,0 4.83357,-5.9625 10.21552,-13.25 z m -18.67262,-44.91357 c -16.69061,-6.41094 -21.41026,-26.9734 -9.08475,-39.58023 9.07545,-9.28259 25.87234,-9.59224 35.35099,-0.65171 19.60412,18.49118 -0.94067,49.95959 -26.26624,40.23194 z m 15.40692,-17.29098 c 3.15776,-3.15775 3.11347,-6.60892 -0.13434,-10.46872 C 287.4764,160.21216 278,163.29054 278,170.75813 c 0,7.66763 9.06026,11.27252 14.54545,5.78732 z"
       id="path9" />
  </g>
</svg>
